<svg width="350" height="184" viewBox="0 0 350 184" fill="none" xmlns="http://www.w3.org/2000/svg">
<g clip-path="url(#clip0_903_5)">
<ellipse cx="162.811" cy="-79.1261" rx="256" ry="214.5" transform="rotate(-4.72848 162.811 -79.1261)" fill="#2F3676"/>
<g clip-path="url(#clip1_903_5)">
<path d="M269.654 85.3285L268.225 86.141V78.9869L269.654 78.1744V85.3285ZM281.417 71.4785L279.992 72.291V79.4452L281.417 78.6285V71.4785ZM296 39.8035V87.7494L255.375 110.833L212.667 90.0452V42.0994L253.363 19.166L296 39.8035ZM246.642 32.4827L275.9 45.816L282.983 41.9952L253.346 28.691L246.642 32.4827ZM250.167 64.5785L221 51.0785V85.2036L250.167 98.3202V64.5785ZM262.754 52.8744L234.346 39.3744L225.825 44.241L254.404 57.4119L262.754 52.8744ZM287.667 48.9452L279.333 53.4369V65.0452L266.833 72.0785V60.1785L258.5 64.6702V99.5119L287.667 82.9077V48.9452ZM267.221 79.5619L265.767 80.391V87.5285L267.221 86.716V79.5619ZM273.075 76.2285L271.642 77.0452V84.1994L273.075 83.3827V76.2285ZM275.467 74.866L274.038 75.6785V82.8327L275.467 82.0202V74.866ZM277.9 73.4827L276.442 74.3119V81.466L277.9 80.6369V73.4827ZM208.5 56.666H200.167V60.8327H208.5V56.666ZM208.5 64.9994H196V69.166H208.5V64.9994ZM208.5 73.3327H200.167V77.4994H208.5V73.3327Z" fill="#181846"/>
</g>
</g>
<defs>
<clipPath id="clip0_903_5">
<rect width="350" height="184" fill="white"/>
</clipPath>
<clipPath id="clip1_903_5">
<rect width="100" height="100" fill="white" transform="translate(196 15)"/>
</clipPath>
</defs>
</svg>
